<svg xmlns="http://www.w3.org/2000/svg" version="1.1" xmlns:xlink="http://www.w3.org/1999/xlink" xmlns:svgjs="http://svgjs.com/svgjs" width="1440" height="560" preserveAspectRatio="none" viewBox="0 0 1440 560"><g mask="url(&quot;#SvgjsMask1002&quot;)" fill="none"><rect width="1440" height="560" x="0" y="0" fill="rgba(16, 15, 46, 1)"></rect><path d="M825.47 614.92C930.22 584.32 891.71 289.84 1115.18 288.38 1338.64 286.92 1546.78 405.39 1694.59 405.98" stroke="rgba(51, 121, 194, 0.26)" stroke-width="2"></path><path d="M891.62 580.55C1031.26 535.44 1074.42 132 1268.6 130.62 1462.77 129.24 1531.32 381.23 1645.57 393.82" stroke="rgba(51, 121, 194, 0.26)" stroke-width="2"></path><path d="M661.45 602.34C751.62 581.95 724.28 343.83 925.29 343.28 1126.31 342.73 1317.82 460.17 1452.98 460.88" stroke="rgba(51, 121, 194, 0.26)" stroke-width="2"></path><path d="M820.44 590.81C936.59 531.6 884.9 150.56 1098.26 149.47 1311.63 148.38 1500.92 400.91 1653.91 407.07" stroke="rgba(51, 121, 194, 0.26)" stroke-width="2"></path><path d="M787.22 663.4C863.97 659.76 838.57 534.36 1062.78 527.31 1287 520.26 1466.26 318.16 1613.91 314.51" stroke="rgba(51, 121, 194, 0.26)" stroke-width="2"></path></g><defs><mask id="SvgjsMask1002"><rect width="1440" height="560" fill="#ffffff"></rect></mask></defs></svg>