<?xml version="1.0" standalone="no"?>
<!DOCTYPE svg PUBLIC "-//W3C//DTD SVG 20010904//EN"
 "http://www.w3.org/TR/2001/REC-SVG-20010904/DTD/svg10.dtd">
<svg version="1.0" xmlns="http://www.w3.org/2000/svg"
 width="512.000000pt" height="512.000000pt" viewBox="0 0 512.000000 512.000000"
 preserveAspectRatio="xMidYMid meet">

<g transform="translate(0.000000,512.000000) scale(0.100000,-0.100000)"
fill="#000000" stroke="none">
<path d="M3787 3930 c-93 -24 -174 -85 -215 -164 -24 -46 -27 -61 -27 -156 0
-115 7 -138 72 -217 40 -50 135 -99 209 -108 105 -13 238 30 307 99 61 61 82
118 82 226 0 78 -4 103 -23 141 -33 67 -106 135 -171 160 -64 24 -178 33 -234
19z"/>
<path d="M1693 3818 c-5 -7 -56 -166 -113 -353 -56 -187 -232 -765 -391 -1284
-159 -520 -289 -955 -289 -967 0 -12 7 -25 16 -28 9 -3 154 -6 324 -6 258 0
310 2 320 15 6 8 51 155 99 327 l86 313 345 0 344 0 96 -317 c52 -174 100
-322 106 -328 7 -7 118 -9 339 -8 288 3 329 5 338 19 7 12 -22 120 -117 425
-70 225 -252 812 -404 1304 l-278 895 -406 3 c-317 2 -407 -1 -415 -10z m416
-705 c13 -54 66 -243 117 -420 52 -177 94 -326 94 -332 0 -8 -75 -11 -236 -11
-221 0 -236 1 -229 17 33 87 215 784 215 824 0 47 18 11 39 -78z"/>
<path d="M3556 3104 c-3 -9 -6 -440 -6 -958 0 -719 3 -945 12 -954 9 -9 94
-12 320 -12 294 0 308 1 318 19 14 27 14 1875 0 1902 -10 18 -24 19 -324 19
-277 0 -315 -2 -320 -16z"/>
</g>
</svg>
