<?xml version="1.0" standalone="no"?>
<!DOCTYPE svg PUBLIC "-//W3C//DTD SVG 20010904//EN"
 "http://www.w3.org/TR/2001/REC-SVG-20010904/DTD/svg10.dtd">
<svg version="1.0" xmlns="http://www.w3.org/2000/svg"
 width="512.000000pt" height="512.000000pt" viewBox="0 0 512.000000 512.000000"
 preserveAspectRatio="xMidYMid meet">

<g transform="translate(0.000000,512.000000) scale(0.100000,-0.100000)"
fill="#000000" stroke="none">
<path d="M2521 5106 c-87 -48 -50 -186 49 -186 51 0 100 49 100 99 0 75 -83
124 -149 87z"/>
<path d="M1966 5020 c-476 -156 -880 -511 -1101 -965 -197 -405 -246 -865
-137 -1295 85 -332 236 -607 471 -852 50 -52 91 -98 91 -101 0 -3 -137 -247
-305 -543 -168 -296 -305 -549 -305 -562 0 -37 27 -78 60 -92 29 -12 66 -6
386 60 195 40 356 71 358 69 2 -2 56 -150 119 -329 136 -385 133 -378 168
-396 45 -23 78 -17 113 19 17 17 178 290 356 604 179 315 327 573 330 573 3 0
151 -258 330 -573 178 -314 339 -587 356 -605 35 -35 68 -41 113 -18 35 18 32
11 168 396 63 179 117 327 119 329 2 2 163 -29 358 -69 320 -66 357 -72 386
-60 33 14 60 55 60 93 0 13 -137 265 -305 561 -168 295 -305 540 -305 544 0 4
23 30 51 57 302 293 504 707 554 1135 95 805 -329 1577 -1060 1930 -133 64
-325 130 -381 130 -79 0 -127 -106 -71 -160 13 -12 79 -41 152 -65 353 -116
642 -327 860 -630 79 -109 193 -336 233 -465 157 -498 81 -1039 -206 -1465
-282 -419 -731 -690 -1234 -744 -698 -76 -1381 298 -1698 929 -197 392 -232
854 -98 1280 40 129 153 355 235 470 87 122 271 306 393 393 118 83 342 195
475 237 124 38 140 46 154 77 20 43 13 82 -18 114 -40 39 -78 38 -225 -11z
m-425 -3396 c219 -144 544 -262 797 -290 34 -4 61 -10 60 -14 -12 -27 -553
-970 -557 -970 -3 0 -39 96 -80 213 -126 360 -129 366 -167 385 -33 15 -43 14
-321 -45 -159 -33 -289 -59 -291 -57 -4 3 466 834 472 834 1 0 40 -25 87 -56z
m2388 -366 c127 -224 231 -409 231 -411 0 -2 -131 24 -290 57 -281 58 -291 59
-324 44 -38 -19 -41 -25 -167 -385 -41 -117 -77 -213 -80 -213 -4 0 -546 943
-557 970 -1 4 26 10 60 14 252 28 555 137 788 284 52 33 98 57 102 54 3 -4
110 -190 237 -414z"/>
<path d="M2390 4710 c-377 -52 -695 -221 -948 -506 -169 -188 -286 -425 -343
-694 -33 -151 -33 -429 0 -580 72 -336 226 -603 481 -833 189 -171 430 -291
700 -348 151 -33 429 -33 580 0 606 129 1052 575 1181 1181 19 87 23 136 23
290 0 154 -4 203 -23 290 -129 605 -577 1054 -1176 1180 -114 24 -369 35 -475
20z m450 -219 c258 -59 454 -166 641 -351 192 -189 307 -401 365 -670 25 -118
26 -381 0 -498 -58 -270 -174 -483 -365 -672 -190 -189 -395 -299 -661 -356
-118 -25 -381 -26 -498 0 -270 58 -483 174 -672 365 -189 191 -298 394 -356
661 -26 119 -26 381 0 499 58 269 166 470 356 662 206 209 463 338 751 379 99
14 340 4 439 -19z"/>
<path d="M2522 4177 c-17 -8 -60 -83 -153 -269 -71 -142 -130 -258 -132 -258
-107 -11 -571 -91 -583 -101 -25 -20 -44 -72 -37 -100 3 -13 97 -116 210 -230
l204 -205 -46 -274 c-25 -150 -43 -286 -40 -301 3 -14 17 -37 31 -50 47 -44
77 -34 341 104 133 70 247 127 254 127 6 0 120 -57 253 -127 263 -139 293
-148 340 -104 14 13 28 35 31 50 3 14 -15 150 -40 301 l-46 274 207 207 c187
187 206 209 207 241 1 41 -24 85 -57 98 -12 4 -132 25 -267 44 -134 20 -257
39 -272 42 -25 5 -40 31 -156 263 -103 204 -134 259 -155 269 -33 15 -63 14
-94 -1z m145 -502 c56 -110 102 -190 115 -199 13 -8 104 -26 203 -41 99 -14
191 -29 203 -33 22 -7 11 -20 -126 -153 -84 -81 -153 -156 -157 -170 -3 -13 9
-115 28 -227 19 -111 32 -202 29 -202 -2 0 -87 43 -188 95 -102 52 -193 95
-203 95 -10 0 -102 -43 -204 -95 -101 -52 -187 -95 -189 -95 -3 0 10 91 29
202 19 112 31 214 28 228 -4 14 -71 87 -158 171 -149 144 -151 147 -122 152
17 4 109 18 205 33 96 14 185 32 198 40 13 9 59 88 115 199 50 102 94 185 97
185 3 0 47 -83 97 -185z"/>
</g>
</svg>
