<?xml version="1.0" standalone="no"?>
<!DOCTYPE svg PUBLIC "-//W3C//DTD SVG 20010904//EN"
 "http://www.w3.org/TR/2001/REC-SVG-20010904/DTD/svg10.dtd">
<svg version="1.0" xmlns="http://www.w3.org/2000/svg"
 width="512.000000pt" height="512.000000pt" viewBox="0 0 512.000000 512.000000"
 preserveAspectRatio="xMidYMid meet">

<g transform="translate(0.000000,512.000000) scale(0.100000,-0.100000)"
fill="#000000" stroke="none">
<path d="M2380 5114 c-19 -2 -82 -9 -140 -15 -514 -54 -1047 -271 -1443 -586
-103 -82 -232 -208 -267 -261 -63 -95 -94 -227 -79 -335 7 -51 6 -53 -56 -149
-131 -203 -251 -478 -314 -721 -72 -280 -81 -405 -81 -1212 0 -718 1 -728 51
-827 30 -59 111 -135 174 -164 30 -14 84 -30 119 -36 l64 -11 22 -61 c55 -151
173 -264 330 -315 34 -11 36 -14 47 -76 31 -180 154 -305 332 -336 157 -28
340 61 410 199 51 100 51 96 51 989 0 578 -3 848 -11 885 -32 149 -143 264
-294 304 -132 36 -275 -5 -376 -106 -60 -60 -96 -130 -111 -219 l-12 -70 -53
-17 c-30 -9 -74 -30 -100 -46 l-45 -29 5 273 c4 203 10 306 25 403 52 335 144
632 258 838 38 67 38 67 82 67 62 0 155 26 216 60 29 16 95 68 149 115 700
615 1754 615 2454 0 54 -47 120 -99 149 -115 61 -34 154 -60 217 -60 l45 0 47
-77 c145 -242 233 -507 264 -795 6 -54 11 -235 11 -402 l0 -306 -45 29 c-24
15 -68 36 -98 45 l-53 17 -12 70 c-28 163 -138 283 -297 325 -212 57 -437 -85
-484 -304 -8 -37 -11 -307 -11 -885 0 -893 0 -889 51 -989 30 -59 111 -135
173 -164 252 -115 522 28 569 301 11 62 13 65 47 76 157 51 275 164 330 315
l22 61 64 11 c35 6 89 22 119 36 63 29 144 105 174 164 50 99 51 109 51 827 0
807 -9 932 -81 1212 -63 243 -183 518 -314 721 -62 96 -63 98 -56 149 15 108
-16 240 -79 335 -35 53 -164 179 -267 261 -388 308 -875 511 -1406 583 -107
14 -463 27 -537 18z m560 -223 c529 -80 1013 -304 1378 -638 123 -112 152
-165 153 -280 0 -107 -58 -206 -153 -259 -48 -26 -62 -29 -143 -29 -111 0
-137 12 -255 120 -296 268 -662 434 -1095 496 -49 7 -169 13 -265 13 -96 0
-215 -6 -265 -13 -433 -62 -799 -228 -1095 -496 -118 -108 -144 -120 -255
-120 -81 0 -95 3 -143 29 -95 53 -153 152 -153 259 1 115 30 168 153 280 409
374 952 603 1568 661 107 10 439 -4 570 -23z m-2350 -1266 c13 -14 47 -41 76
-61 l52 -36 -53 -111 c-124 -258 -214 -597 -250 -940 -11 -104 -15 -253 -15
-510 l0 -364 -52 -7 c-29 -4 -73 -16 -97 -27 -24 -10 -45 -19 -47 -19 -2 0 -4
219 -4 488 0 533 9 670 56 879 54 243 124 424 252 650 26 46 50 83 53 83 3 0
16 -11 29 -25z m4022 -58 c128 -226 198 -407 252 -650 47 -209 56 -346 56
-879 0 -269 -2 -488 -4 -488 -2 0 -23 9 -47 19 -24 11 -68 23 -96 27 l-53 7 0
466 c0 360 -4 495 -15 591 -33 266 -89 451 -212 698 -47 95 -84 174 -82 176 2
1 24 17 49 33 25 17 56 43 69 57 14 14 27 26 30 26 3 0 27 -37 53 -83z m-3321
-1390 c24 -13 58 -43 74 -66 l30 -43 3 -852 2 -853 -28 -54 c-22 -43 -38 -59
-81 -81 -68 -36 -114 -36 -182 0 -43 22 -59 38 -81 81 l-28 54 2 853 3 852 30
43 c38 54 103 89 165 89 30 0 63 -8 91 -23z m2720 0 c24 -13 58 -43 74 -66
l30 -43 3 -852 2 -853 -28 -54 c-22 -43 -38 -59 -81 -81 -68 -36 -114 -36
-182 0 -43 22 -59 38 -81 81 l-28 54 2 853 3 852 30 43 c38 54 103 89 165 89
30 0 63 -8 91 -23z m-3211 -977 c0 -319 -4 -580 -8 -580 -21 0 -104 65 -132
103 -56 77 -60 106 -60 477 0 371 4 401 60 479 27 37 110 101 132 101 4 0 8
-261 8 -580z m3583 550 c25 -16 60 -48 77 -71 56 -78 60 -108 60 -479 0 -371
-4 -400 -60 -477 -28 -38 -111 -103 -132 -103 -4 0 -8 261 -8 580 0 319 4 580
8 580 4 0 29 -13 55 -30z m-3983 -551 l0 -201 -32 6 c-103 20 -176 118 -165
219 4 33 17 66 34 91 30 42 101 86 140 86 l23 0 0 -201z m4430 167 c49 -32 79
-83 87 -145 11 -99 -63 -197 -165 -217 l-32 -6 0 202 0 203 36 -6 c20 -4 54
-17 74 -31z"/>
<path d="M2360 4714 c-309 -29 -695 -125 -758 -188 -38 -37 -35 -101 7 -138
39 -35 56 -35 167 2 386 131 824 163 1245 89 132 -23 157 -19 189 33 37 60 4
128 -72 149 -108 29 -313 50 -518 53 -118 2 -235 2 -260 0z"/>
<path d="M3414 4558 c-103 -26 -78 -188 29 -188 84 0 130 104 72 163 -30 29
-58 36 -101 25z"/>
<path d="M2713 2188 c-13 -6 -31 -29 -42 -52 -10 -23 -85 -276 -167 -563 -81
-288 -151 -520 -155 -515 -3 4 -21 52 -39 107 -60 183 -69 204 -100 220 -35
18 -315 21 -353 4 -60 -27 -71 -112 -21 -160 23 -22 35 -24 139 -27 l114 -4
91 -274 c79 -235 96 -277 122 -299 39 -33 80 -32 119 3 28 25 41 64 175 532
79 278 147 514 152 525 6 14 23 -38 63 -200 49 -199 57 -223 86 -253 l32 -33
165 3 c158 3 165 4 190 27 35 33 43 81 20 120 -10 17 -25 34 -33 38 -9 4 -65
10 -125 13 l-110 5 -91 365 c-50 201 -98 375 -105 387 -25 40 -81 53 -127 31z"/>
</g>
</svg>
