<?xml version="1.0" standalone="no"?>
<!DOCTYPE svg PUBLIC "-//W3C//DTD SVG 20010904//EN"
 "http://www.w3.org/TR/2001/REC-SVG-20010904/DTD/svg10.dtd">
<svg version="1.0" xmlns="http://www.w3.org/2000/svg"
 width="512.000000pt" height="512.000000pt" viewBox="0 0 512.000000 512.000000"
 preserveAspectRatio="xMidYMid meet">

<g transform="translate(0.000000,512.000000) scale(0.100000,-0.100000)"
fill="#000000" stroke="none">
<path d="M1485 3793 c-206 -7 -490 -38 -512 -55 -10 -8 -13 -257 -13 -1182 0
-644 4 -1177 8 -1184 7 -9 72 -12 293 -10 l284 3 5 412 5 412 175 4 c317 8
526 72 718 219 186 144 295 437 262 704 -29 231 -142 414 -325 529 -197 123
-445 164 -900 148z m422 -487 c86 -27 143 -72 180 -144 29 -56 33 -73 33 -142
0 -141 -55 -238 -167 -297 -89 -47 -154 -57 -331 -54 l-72 1 2 323 3 322 45 7
c72 10 250 1 307 -16z"/>
<path d="M3387 3154 c-357 -64 -581 -334 -537 -646 31 -215 192 -364 523 -482
110 -39 182 -77 197 -106 19 -35 12 -85 -15 -113 -74 -73 -313 -56 -530 39
-44 20 -84 37 -90 40 -25 10 -40 -27 -86 -216 -37 -151 -46 -206 -38 -216 6
-7 46 -27 90 -44 182 -70 401 -100 597 -81 330 31 542 163 632 396 33 85 34
271 2 359 -34 91 -65 138 -137 204 -78 71 -151 111 -345 188 -190 74 -229 101
-230 157 -1 104 166 136 374 70 44 -14 98 -34 119 -45 66 -33 68 -29 125 189
61 233 65 218 -72 262 -182 58 -410 76 -579 45z"/>
</g>
</svg>
