<?xml version="1.0" standalone="no"?>
<!DOCTYPE svg PUBLIC "-//W3C//DTD SVG 20010904//EN"
 "http://www.w3.org/TR/2001/REC-SVG-20010904/DTD/svg10.dtd">
<svg version="1.0" xmlns="http://www.w3.org/2000/svg"
 width="512.000000pt" height="512.000000pt" viewBox="0 0 512.000000 512.000000"
 preserveAspectRatio="xMidYMid meet">

<g transform="translate(0.000000,512.000000) scale(0.100000,-0.100000)"
fill="#000000" stroke="none">
<path d="M2728 3513 l-637 -637 -83 65 c-69 52 -385 301 -664 521 l-62 48
-156 -76 -156 -75 0 -799 0 -800 150 -75 c82 -41 155 -75 161 -75 5 0 59 38
118 84 59 45 238 184 397 308 l291 225 299 -295 c164 -163 451 -446 636 -631
l337 -335 396 158 395 158 0 1278 c0 1013 -3 1279 -12 1283 -7 3 -181 73 -387
156 -206 83 -377 151 -380 151 -3 0 -293 -287 -643 -637z m628 -1601 c-3 -2
-63 41 -133 96 -430 338 -684 542 -684 549 0 4 184 153 408 330 l408 322 3
-646 c1 -355 0 -648 -2 -651z m-1827 884 l234 -234 -27 -33 c-46 -54 -442
-459 -449 -459 -4 0 -7 216 -7 480 0 264 3 480 8 480 4 0 112 -105 241 -234z"/>
</g>
</svg>
