<?xml version="1.0" standalone="no"?>
<!DOCTYPE svg PUBLIC "-//W3C//DTD SVG 20010904//EN"
 "http://www.w3.org/TR/2001/REC-SVG-20010904/DTD/svg10.dtd">
<svg version="1.0" xmlns="http://www.w3.org/2000/svg"
 width="512.000000pt" height="512.000000pt" viewBox="0 0 512.000000 512.000000"
 preserveAspectRatio="xMidYMid meet">

<g transform="translate(0.000000,512.000000) scale(0.100000,-0.100000)"
fill="#000000" stroke="none">
<path d="M4047 3673 c-4 -3 -7 -223 -7 -487 l-1 -481 -21 30 c-50 70 -175 181
-243 217 -114 58 -173 72 -320 72 -114 0 -140 -3 -210 -27 -117 -39 -199 -91
-295 -187 -177 -178 -270 -433 -257 -705 16 -335 169 -608 422 -752 88 -50
141 -69 239 -88 99 -19 181 -19 291 0 155 27 326 129 409 244 20 28 40 51 46
51 5 0 10 -18 10 -40 0 -109 80 -215 186 -246 57 -16 164 -15 252 2 l32 7 0
184 0 184 -34 29 c-70 62 -66 -6 -66 1049 l0 951 -213 0 c-118 0 -217 -3 -220
-7z m-313 -1045 c97 -38 206 -136 270 -242 l36 -60 0 -211 0 -212 -38 -59
c-91 -139 -227 -217 -382 -217 -307 0 -530 313 -454 639 46 200 196 359 364
384 62 10 146 1 204 -22z"/>
<path d="M576 3598 c5 -7 182 -260 394 -563 213 -302 395 -562 405 -578 19
-30 21 -27 -92 -187 -187 -262 -675 -964 -680 -976 -5 -12 28 -14 238 -12
l243 3 271 407 c149 224 274 410 278 414 3 4 130 -181 281 -410 l276 -416 240
0 c132 0 240 3 240 8 0 4 -178 260 -395 570 -217 310 -395 568 -395 573 0 5
176 260 392 566 215 307 400 570 410 586 l19 27 -244 0 -244 0 -287 -431
c-158 -237 -291 -427 -296 -423 -4 5 -134 199 -289 432 l-282 422 -245 0
c-194 0 -244 -3 -238 -12z"/>
</g>
</svg>
